<?xml version="1.0" encoding="UTF-8"?>
<!DOCTYPE svg PUBLIC "-//W3C//DTD SVG 1.1//EN" "http://www.w3.org/Graphics/SVG/1.1/DTD/svg11.dtd">
<!-- Creator: CorelDRAW (Versão OEM) -->
<svg xmlns="http://www.w3.org/2000/svg" xml:space="preserve" width="69.9985mm" height="64.0889mm" version="1.1" style="shape-rendering:geometricPrecision; text-rendering:geometricPrecision; image-rendering:optimizeQuality; fill-rule:evenodd; clip-rule:evenodd"
viewBox="0 0 285.63 261.52"
 xmlns:xlink="http://www.w3.org/1999/xlink"
 xmlns:xodm="http://www.corel.com/coreldraw/odm/2003">
 <defs>
  <style type="text/css">
   <![CDATA[
    .fil0 {fill:black;fill-rule:nonzero}
   ]]>
  </style>
 </defs>
 <g id="Camada_x0020_1">
  <metadata id="CorelCorpID_0Corel-Layer"/>
  <path class="fil0" d="M89.33 178.1l2.73 5.21c0.26,0.5 -0.1,1.09 -0.67,1.09l-41.94 0c-0.3,0 -0.54,-0.25 -0.54,-0.55l0.05 -11.83 0.19 -75.32c0,-0.51 0.69,-0.67 0.91,-0.21l39.27 81.61zm147.31 -81.4l0 87.16c0,0.32 -0.26,0.58 -0.58,0.58l-42.07 0c-0.43,0 -0.71,-0.45 -0.52,-0.83l42.07 -87.16c0.26,-0.56 1.11,-0.38 1.11,0.25zm2.72 -0.46l42.41 87.49c0.16,0.33 -0.08,0.72 -0.46,0.72l-42.4 0c-0.28,0 -0.5,-0.22 -0.5,-0.5l0 -87.49c0,-0.53 0.72,-0.7 0.95,-0.22zm-192.25 78.45l-0.38 9.67 -42.8 0.04c-0.24,0 -0.4,-0.25 -0.29,-0.47l42.34 -87.18c0.05,-0.1 0.11,-0.19 0.19,-0.26l0.43 -0.41c0.23,-0.22 0.61,-0.05 0.61,0.26l-0.09 78.35zm-23.03 27.58c23.48,6.87 55.97,4.83 71.92,-16.7 0.32,-0.44 0.17,-1.06 -0.32,-1.29l-0.62 -0.3c-0.29,-0.14 -0.52,-0.37 -0.66,-0.66l-3.13 -6.45 -38.98 -80.24c-0.14,-0.28 0.04,-0.62 0.35,-0.66 7.98,-1.04 15.72,-3.95 23.2,-8.72 7.96,-5.07 14.75,-10.57 22.86,-14.39 10.57,-5 21.37,-7.93 32.41,-8.79 0.3,-0.02 0.56,0.22 0.56,0.52 0.14,10.46 2.17,20.61 6.08,30.45 0.66,1.65 0.78,5.25 0.36,10.8l-1.67 30.07c-1.01,15.58 -1.63,31.27 -1.83,47.06 -0.03,2.83 0.33,5.41 1.1,7.74 0.18,0.51 0.04,1.07 -0.33,1.46 -2.33,2.39 -2.9,5.31 -1.72,8.74 0.11,0.32 0.18,0.66 0.19,0.99 0.11,2.45 0.29,3.93 -0.27,6.52 -1.43,6.51 -2.3,11.26 -2.63,14.23 -0.03,0.32 -0.04,0.66 -0.02,0.98l1.1 15.11c0.03,0.51 -0.36,0.94 -0.88,0.93 -6.55,-0.03 -9.94,-0.04 -10.18,-0.04 -6.19,-0.05 -10.16,-0.49 -12.86,4.86 -0.18,0.35 -0.54,0.57 -0.93,0.57 -5.22,-0.02 -9.77,-0.43 -12.83,4.67 -0.19,0.31 -0.5,0.52 -0.87,0.56 -3.7,0.47 -5.13,2.16 -7.15,4.91 -0.26,0.35 -0.63,0.63 -1.04,0.79 -2.58,0.98 -6.56,1.79 -8.28,4.08 -0.44,0.58 -0.02,1.43 0.71,1.43l70.53 0.01 59.66 -0.01c0.72,0 1.11,-0.83 0.65,-1.39 -1.92,-2.29 -4.94,-2.85 -7.58,-3.82 -0.8,-0.3 -1.76,-1.17 -2.87,-2.62 -1.3,-1.7 -3.01,-2.77 -5.15,-3.21 -0.56,-0.11 -1.07,-0.39 -1.48,-0.79 -2.04,-2.03 -2.96,-3.5 -6.12,-4.35 -0.11,-0.03 -1.71,-0.06 -4.78,-0.09 -2.1,-0.03 -3.44,-0.78 -4.05,-2.25 -1.51,-2.23 -3.7,-3.35 -6.59,-3.35 -9.59,-0.01 -14.76,-0.01 -15.54,-0.02 -0.4,0 -0.72,-0.33 -0.71,-0.73 0.05,-3.44 0.32,-7.45 0.8,-12.02 0.22,-2.1 0.2,-5.02 -0.13,-6.62 -1.4,-6.96 -2.33,-11.87 -2.78,-14.75 -0.14,-0.8 0.03,-2.46 0.5,-4.98 0.67,-3.56 0.66,-5.71 -1.81,-8.21 -0.4,-0.42 -0.55,-1.01 -0.41,-1.56 0.8,-2.93 1.18,-5.96 1.13,-9.09 -0.3,-17.24 -1.03,-34.56 -2.18,-51.97l-1.53 -27.79c0.03,-3.83 0.29,-6.34 0.78,-7.55 3.85,-9.58 5.79,-19.48 5.83,-29.69 0,-0.28 0.24,-0.5 0.52,-0.49 13.4,0.67 27.62,5.53 38.68,11.93 3.33,1.93 7.45,5.13 11.28,7.53 7.4,5.52 18.93,11.87 28.31,12.14 0.45,0.01 0.74,0.48 0.54,0.89l-41.86 86.74c-0.15,0.29 -0.39,0.53 -0.68,0.68l-0.96 0.46c-0.31,0.16 -0.41,0.55 -0.21,0.83 8.73,12.06 22.27,17.92 36.8,19.65 18.55,2.22 38.7,-0.45 53.03,-12.55 1.68,-1.42 3.73,-3.77 6.14,-7.04 0.27,-0.37 0.09,-0.9 -0.34,-1.03l-0.43 -0.14c-0.32,-0.1 -0.58,-0.32 -0.73,-0.63l-42.54 -87.76c-0.14,-0.29 -0.06,-0.64 0.18,-0.84 3.16,-2.74 3.9,-5.8 2.21,-9.17 -3.16,-6.31 -12.01,-4.54 -13.34,2.2 -0.07,0.38 -0.47,0.58 -0.81,0.44 -6.8,-2.91 -13.07,-6.65 -18.82,-11.24 -16.62,-13.82 -35.72,-21.8 -57.28,-23.92 -0.29,-0.02 -0.54,-0.23 -0.63,-0.51l-3.17 -10.28c-0.43,-1.39 -0.26,-2.9 0.47,-4.16 3.69,-6.42 3.43,-11.75 0.5,-19.05 -1.7,-4.22 -3.19,-9.65 -4.5,-16.26 -0.18,-0.89 -0.83,-1.75 -1.99,-2.59 -1.98,-1.43 -4.35,0.56 -4.8,2.4 -0.81,3.26 -1.87,7.48 -3.15,12.65 -0.65,2.6 -2.67,6.01 -3.21,8.56 -1.07,5.12 -0.35,9.85 2.15,14.2 0.77,1.34 0.95,2.94 0.5,4.42l-3.09 10.01c-0.1,0.35 -0.42,0.61 -0.79,0.65 -14.57,1.29 -28.47,5.64 -41.68,13.06 -12.03,6.73 -21.18,16.89 -34.24,21.92 -0.29,0.1 -0.6,-0.05 -0.7,-0.34 -3.1,-10.2 -16.6,-6.38 -14.01,3.56 0.25,0.94 1.15,2.07 2.69,3.38 0.27,0.23 0.36,0.6 0.2,0.93l-42.25 87.53c-0.16,0.32 -0.42,0.58 -0.74,0.74l-0.77 0.38c-0.4,0.19 -0.52,0.69 -0.26,1.04 6.06,8.19 14.04,13.76 23.95,16.7z"/>
 </g>
</svg>
