  0
SECTION
  2
HEADER
  9
$ACADVER
  1
AC1032
  9
$DWGCODEPAGE
  3
ANSI_1252
  9
$INSBASE
 10
0.0
 20
0.0
 30
0.0
  9
$EXTMIN
 10
0.0
 20
0.0
 30
0.0
  9
$EXTMAX
 10
60.0
 20
25.0
 30
0.0
  9
$LIMMIN
 10
0.0
 20
0.0
  9
$LIMMAX
 10
60.0
 20
25.0
  9
$INSUNITS
 70
4
  9
$MEASUREMENT
 70
1
  9
$LUNITS
 70
2
  9
$LUPREC
 70
4
  0
ENDSEC
  0
SECTION
  2
TABLES
  0
TABLE
  2
LTYPE
 70
1
  0
LTYPE
  2
Continuous
 70
0
  3
Solid line
 72
65
 73
0
 40
0.0
  0
ENDTAB
  0
TABLE
  2
LAYER
 70
2
  0
LAYER
  2
0
 70
0
 62
7
  6
Continuous
  0
LAYER
  2
Camada 1
 70
0
 62
7
  6
Continuous
  0
ENDTAB
  0
ENDSEC
  0
SECTION
  2
BLOCKS
  0
BLOCK
  8
0
  2
*Model_Space
 70
0
 10
0.0
 20
0.0
 30
0.0
  3
*Model_Space
  1

  0
ENDBLK
  8
0
  0
BLOCK
  8
0
  2
*Paper_Space
 70
0
 10
0.0
 20
0.0
 30
0.0
  3
*Paper_Space
  1

  0
ENDBLK
  8
0
  0
ENDSEC
  0
SECTION
  2
ENTITIES
  0
SPLINE
  8
Camada 1
 62
250
100
AcDbEntity
100
AcDbSpline
210
0
220
0
230
1
 70
8
 71
3
 72
8
 73
4
 74
0
 42
1e-10
 43
1e-10
 40
0
 40
0
 40
0
 40
0
 40
1
 40
1
 40
1
 40
1
 10
5
 20
19
 30
0
 10
7.666666666666666
 20
19
 30
0
 10
10.333333333333332
 20
19
 30
0
 10
13
 20
19
 30
0
  0
SPLINE
  8
Camada 1
 62
250
100
AcDbEntity
100
AcDbSpline
210
0
220
0
230
1
 70
8
 71
3
 72
8
 73
4
 74
0
 42
1e-10
 43
1e-10
 40
0
 40
0
 40
0
 40
0
 40
1
 40
1
 40
1
 40
1
 10
9
 20
19
 30
0
 10
9
 20
15
 30
0
 10
9
 20
11
 30
0
 10
9
 20
7
 30
0
  0
SPLINE
  8
Camada 1
 62
250
100
AcDbEntity
100
AcDbSpline
210
0
220
0
230
1
 70
8
 71
3
 72
8
 73
4
 74
0
 42
1e-10
 43
1e-10
 40
0
 40
0
 40
0
 40
0
 40
1
 40
1
 40
1
 40
1
 10
15
 20
19
 30
0
 10
15
 20
15
 30
0
 10
15
 20
11
 30
0
 10
15
 20
7
 30
0
  0
SPLINE
  8
Camada 1
 62
250
100
AcDbEntity
100
AcDbSpline
210
0
220
0
230
1
 70
8
 71
3
 72
8
 73
4
 74
0
 42
1e-10
 43
1e-10
 40
0
 40
0
 40
0
 40
0
 40
1
 40
1
 40
1
 40
1
 10
15
 20
19
 30
0
 10
17.666666666666668
 20
19
 30
0
 10
20.333333333333332
 20
19
 30
0
 10
23
 20
19
 30
0
  0
SPLINE
  8
Camada 1
 62
250
100
AcDbEntity
100
AcDbSpline
210
0
220
0
230
1
 70
8
 71
3
 72
8
 73
4
 74
0
 42
1e-10
 43
1e-10
 40
0
 40
0
 40
0
 40
0
 40
1
 40
1
 40
1
 40
1
 10
15
 20
13
 30
0
 10
17
 20
13
 30
0
 10
19
 20
13
 30
0
 10
21
 20
13
 30
0
  0
SPLINE
  8
Camada 1
 62
250
100
AcDbEntity
100
AcDbSpline
210
0
220
0
230
1
 70
8
 71
3
 72
8
 73
4
 74
0
 42
1e-10
 43
1e-10
 40
0
 40
0
 40
0
 40
0
 40
1
 40
1
 40
1
 40
1
 10
15
 20
7
 30
0
 10
17.666666666666668
 20
7
 30
0
 10
20.333333333333332
 20
7
 30
0
 10
23
 20
7
 30
0
  0
SPLINE
  8
Camada 1
 62
250
100
AcDbEntity
100
AcDbSpline
210
0
220
0
230
1
 70
8
 71
3
 72
17
 73
13
 74
0
 42
1e-10
 43
1e-10
 40
0
 40
0
 40
0
 40
0
 40
0.25
 40
0.25
 40
0.25
 40
0.5
 40
0.5
 40
0.5
 40
0.75
 40
0.75
 40
0.75
 40
1
 40
1
 40
1
 40
1
 10
33
 20
19
 30
0
 10
27.666666666666668
 20
19
 30
0
 10
25
 20
17.8
 30
0
 10
25
 20
15.4
 30
0
 10
25
 20
13.8
 30
0
 10
26.333333333333332
 20
13
 30
0
 10
29
 20
13
 30
0
 10
31.666666666666668
 20
13
 30
0
 10
33
 20
12.200000000000001
 30
0
 10
33
 20
10.600000000000001
 30
0
 10
33
 20
8.2
 30
0
 10
30.333333333333332
 20
7
 30
0
 10
25
 20
7
 30
0
  0
SPLINE
  8
Camada 1
 62
250
100
AcDbEntity
100
AcDbSpline
210
0
220
0
230
1
 70
8
 71
3
 72
8
 73
4
 74
0
 42
1e-10
 43
1e-10
 40
0
 40
0
 40
0
 40
0
 40
1
 40
1
 40
1
 40
1
 10
35
 20
19
 30
0
 10
37.666666666666664
 20
19
 30
0
 10
40.333333333333336
 20
19
 30
0
 10
43
 20
19
 30
0
  0
SPLINE
  8
Camada 1
 62
250
100
AcDbEntity
100
AcDbSpline
210
0
220
0
230
1
 70
8
 71
3
 72
8
 73
4
 74
0
 42
1e-10
 43
1e-10
 40
0
 40
0
 40
0
 40
0
 40
1
 40
1
 40
1
 40
1
 10
39
 20
19
 30
0
 10
39
 20
15
 30
0
 10
39
 20
11
 30
0
 10
39
 20
7
 30
0
  0
SPLINE
  8
Camada 1
 62
250
100
AcDbEntity
100
AcDbSpline
210
0
220
0
230
1
 70
8
 71
3
 72
8
 73
4
 74
0
 42
1e-10
 43
1e-10
 40
0
 40
0
 40
0
 40
0
 40
1
 40
1
 40
1
 40
1
 10
45
 20
19
 30
0
 10
45
 20
15
 30
0
 10
45
 20
11
 30
0
 10
45
 20
7
 30
0
  0
SPLINE
  8
Camada 1
 62
250
100
AcDbEntity
100
AcDbSpline
210
0
220
0
230
1
 70
8
 71
3
 72
8
 73
4
 74
0
 42
1e-10
 43
1e-10
 40
0
 40
0
 40
0
 40
0
 40
1
 40
1
 40
1
 40
1
 10
45
 20
19
 30
0
 10
47.666666666666664
 20
19
 30
0
 10
50.333333333333336
 20
19
 30
0
 10
53
 20
19
 30
0
  0
SPLINE
  8
Camada 1
 62
250
100
AcDbEntity
100
AcDbSpline
210
0
220
0
230
1
 70
8
 71
3
 72
8
 73
4
 74
0
 42
1e-10
 43
1e-10
 40
0
 40
0
 40
0
 40
0
 40
1
 40
1
 40
1
 40
1
 10
45
 20
13
 30
0
 10
47
 20
13
 30
0
 10
49
 20
13
 30
0
 10
51
 20
13
 30
0
  0
SPLINE
  8
Camada 1
 62
250
100
AcDbEntity
100
AcDbSpline
210
0
220
0
230
1
 70
8
 71
3
 72
8
 73
4
 74
0
 42
1e-10
 43
1e-10
 40
0
 40
0
 40
0
 40
0
 40
1
 40
1
 40
1
 40
1
 10
45
 20
7
 30
0
 10
47.666666666666664
 20
7
 30
0
 10
50.333333333333336
 20
7
 30
0
 10
53
 20
7
 30
0
  0
ENDSEC
  0
EOF
