  0
SECTION
  2
HEADER
  9
$ACADVER
  1
AC1032
  9
$DWGCODEPAGE
  3
ANSI_1252
  9
$INSBASE
 10
0.0
 20
0.0
 30
0.0
  9
$EXTMIN
 10
0.0
 20
0.0
 30
0.0
  9
$EXTMAX
 10
60.0
 20
25.0
 30
0.0
  9
$LIMMIN
 10
0.0
 20
0.0
  9
$LIMMAX
 10
60.0
 20
25.0
  9
$INSUNITS
 70
4
  9
$MEASUREMENT
 70
1
  9
$LUNITS
 70
2
  9
$LUPREC
 70
4
  0
ENDSEC
  0
SECTION
  2
TABLES
  0
TABLE
  2
LTYPE
 70
1
  0
LTYPE
  2
Continuous
 70
0
  3
Solid line
 72
65
 73
0
 40
0.0
  0
ENDTAB
  0
TABLE
  2
LAYER
 70
2
  0
LAYER
  2
0
 70
0
 62
7
  6
Continuous
  0
LAYER
  2
Camada 1
 70
0
 62
7
  6
Continuous
  0
ENDTAB
  0
ENDSEC
  0
SECTION
  2
BLOCKS
  0
BLOCK
  8
0
  2
*Model_Space
 70
0
 10
0.0
 20
0.0
 30
0.0
  3
*Model_Space
  1

  0
ENDBLK
  8
0
  0
BLOCK
  8
0
  2
*Paper_Space
 70
0
 10
0.0
 20
0.0
 30
0.0
  3
*Paper_Space
  1

  0
ENDBLK
  8
0
  0
ENDSEC
  0
SECTION
  2
ENTITIES
  0
SPLINE
  8
Camada 1
 62
31
100
AcDbEntity
100
AcDbSpline
210
0
220
0
230
1
 70
11
 71
3
 72
41
 73
37
 74
0
 42
1e-10
 43
1e-10
 40
0
 40
0
 40
0
 40
0
 40
0.08333333333333333
 40
0.08333333333333333
 40
0.08333333333333333
 40
0.16666666666666666
 40
0.16666666666666666
 40
0.16666666666666666
 40
0.25
 40
0.25
 40
0.25
 40
0.3333333333333333
 40
0.3333333333333333
 40
0.3333333333333333
 40
0.4166666666666667
 40
0.4166666666666667
 40
0.4166666666666667
 40
0.5
 40
0.5
 40
0.5
 40
0.5833333333333334
 40
0.5833333333333334
 40
0.5833333333333334
 40
0.6666666666666666
 40
0.6666666666666666
 40
0.6666666666666666
 40
0.75
 40
0.75
 40
0.75
 40
0.8333333333333334
 40
0.8333333333333334
 40
0.8333333333333334
 40
0.9166666666666666
 40
0.9166666666666666
 40
0.9166666666666666
 40
1
 40
1
 40
1
 40
1
 10
3
 20
25
 30
0
 10
21
 20
25
 30
0
 10
39
 20
25
 30
0
 10
57
 20
25
 30
0
 10
57.79564946951863
 20
25
 30
0
 10
58.55871120821554
 20
24.683929478903746
 30
0
 10
59.121320343559645
 20
24.121320343559642
 30
0
 10
59.68392947890375
 20
23.558711208215538
 30
0
 10
60
 20
22.795649469518633
 30
0
 10
60
 20
22
 30
0
 10
60
 20
15.666666666666668
 30
0
 10
60
 20
9.333333333333334
 30
0
 10
60
 20
3
 30
0
 10
60
 20
2.204350530481367
 30
0
 10
59.68392947890375
 20
1.4412887917844621
 30
0
 10
59.121320343559645
 20
0.8786796564403581
 30
0
 10
58.55871120821554
 20
0.316070521096254
 30
0
 10
57.79564946951863
 20
0
 30
0
 10
57
 20
0
 30
0
 10
39
 20
0
 30
0
 10
21
 20
0
 30
0
 10
3
 20
0
 30
0
 10
2.204350530481368
 20
0
 30
0
 10
1.4412887917844615
 20
0.316070521096254
 30
0
 10
0.8786796564403576
 20
0.8786796564403581
 30
0
 10
0.316070521096254
 20
1.4412887917844621
 30
0
 10
0
 20
2.204350530481367
 30
0
 10
0
 20
3
 30
0
 10
0
 20
9.333333333333332
 30
0
 10
0
 20
15.666666666666666
 30
0
 10
0
 20
22
 30
0
 10
0
 20
22.795649469518633
 30
0
 10
0.3160705210962531
 20
23.558711208215538
 30
0
 10
0.8786796564403572
 20
24.121320343559642
 30
0
 10
1.4412887917844608
 20
24.683929478903746
 30
0
 10
2.2043505304813675
 20
25
 30
0
 10
2.9999999999999996
 20
25
 30
0
  0
ENDSEC
  0
EOF
