  0
SECTION
  2
HEADER
  9
$ACADVER
  1
AC1032
  9
$DWGCODEPAGE
  3
ANSI_1252
  9
$INSBASE
 10
0.0
 20
0.0
 30
0.0
  9
$EXTMIN
 10
0.0
 20
0.0
 30
0.0
  9
$EXTMAX
 10
60.0
 20
25.0
 30
0.0
  9
$LIMMIN
 10
0.0
 20
0.0
  9
$LIMMAX
 10
60.0
 20
25.0
  9
$INSUNITS
 70
4
  9
$MEASUREMENT
 70
1
  9
$LUNITS
 70
2
  9
$LUPREC
 70
4
  0
ENDSEC
  0
SECTION
  2
TABLES
  0
TABLE
  2
LTYPE
 70
1
  0
LTYPE
  2
Continuous
 70
0
  3
Solid line
 72
65
 73
0
 40
0.0
  0
ENDTAB
  0
TABLE
  2
LAYER
 70
2
  0
LAYER
  2
0
 70
0
 62
7
  6
Continuous
  0
LAYER
  2
Camada 1
 70
0
 62
7
  6
Continuous
  0
ENDTAB
  0
ENDSEC
  0
SECTION
  2
BLOCKS
  0
BLOCK
  8
0
  2
*Model_Space
 70
0
 10
0.0
 20
0.0
 30
0.0
  3
*Model_Space
  1

  0
ENDBLK
  8
0
  0
BLOCK
  8
0
  2
*Paper_Space
 70
0
 10
0.0
 20
0.0
 30
0.0
  3
*Paper_Space
  1

  0
ENDBLK
  8
0
  0
ENDSEC
  0
SECTION
  2
ENTITIES
  0
SPLINE
  8
Camada 1
 62
5
100
AcDbEntity
100
AcDbSpline
210
0
220
0
230
1
 70
8
 71
3
 72
8
 73
4
 74
0
 42
1e-10
 43
1e-10
 40
0
 40
0
 40
0
 40
0
 40
1
 40
1
 40
1
 40
1
 10
28
 20
13
 30
0
 10
29.333333333333332
 20
13
 30
0
 10
30.666666666666668
 20
13
 30
0
 10
32
 20
13
 30
0
  0
SPLINE
  8
Camada 1
 62
5
100
AcDbEntity
100
AcDbSpline
210
0
220
0
230
1
 70
8
 71
3
 72
8
 73
4
 74
0
 42
1e-10
 43
1e-10
 40
0
 40
0
 40
0
 40
0
 40
1
 40
1
 40
1
 40
1
 10
30
 20
15
 30
0
 10
30
 20
13.666666666666666
 30
0
 10
30
 20
12.333333333333334
 30
0
 10
30
 20
11
 30
0
  0
SPLINE
  8
Camada 1
 62
5
100
AcDbEntity
100
AcDbSpline
210
0
220
0
230
1
 70
8
 71
3
 72
8
 73
4
 74
0
 42
1e-10
 43
1e-10
 40
0
 40
0
 40
0
 40
0
 40
1
 40
1
 40
1
 40
1
 10
5
 20
20
 30
0
 10
8.333333333333334
 20
20
 30
0
 10
11.666666666666668
 20
20
 30
0
 10
15
 20
20
 30
0
  0
SPLINE
  8
Camada 1
 62
5
100
AcDbEntity
100
AcDbSpline
210
0
220
0
230
1
 70
8
 71
3
 72
8
 73
4
 74
0
 42
1e-10
 43
1e-10
 40
0
 40
0
 40
0
 40
0
 40
1
 40
1
 40
1
 40
1
 10
5
 20
5
 30
0
 10
8.333333333333334
 20
5
 30
0
 10
11.666666666666668
 20
5
 30
0
 10
15
 20
5
 30
0
  0
SPLINE
  8
Camada 1
 62
5
100
AcDbEntity
100
AcDbSpline
210
0
220
0
230
1
 70
8
 71
3
 72
29
 73
25
 74
0
 42
1e-10
 43
1e-10
 40
0
 40
0
 40
0
 40
0
 40
0.125
 40
0.125
 40
0.125
 40
0.25
 40
0.25
 40
0.25
 40
0.375
 40
0.375
 40
0.375
 40
0.5
 40
0.5
 40
0.5
 40
0.625
 40
0.625
 40
0.625
 40
0.75
 40
0.75
 40
0.75
 40
0.875
 40
0.875
 40
0.875
 40
1
 40
1
 40
1
 40
1
 10
45
 20
15
 30
0
 10
45.66304122459886
 20
15
 30
0
 10
46.29892600684628
 20
14.736607899086454
 30
0
 10
46.76776695296637
 20
14.267766952966369
 30
0
 10
47.23660789908646
 20
13.798926006846282
 30
0
 10
47.5
 20
13.16304122459886
 30
0
 10
47.5
 20
12.5
 30
0
 10
47.5
 20
11.83695877540114
 30
0
 10
47.23660789908646
 20
11.201073993153718
 30
0
 10
46.76776695296637
 20
10.732233047033631
 30
0
 10
46.29892600684628
 20
10.263392100913546
 30
0
 10
45.66304122459886
 20
10
 30
0
 10
45
 20
10
 30
0
 10
44.33695877540114
 20
10
 30
0
 10
43.70107399315372
 20
10.263392100913546
 30
0
 10
43.23223304703363
 20
10.732233047033631
 30
0
 10
42.76339210091354
 20
11.201073993153717
 30
0
 10
42.5
 20
11.83695877540114
 30
0
 10
42.5
 20
12.5
 30
0
 10
42.5
 20
13.16304122459886
 30
0
 10
42.76339210091354
 20
13.798926006846282
 30
0
 10
43.23223304703363
 20
14.267766952966369
 30
0
 10
43.70107399315372
 20
14.736607899086454
 30
0
 10
44.336958775401136
 20
15
 30
0
 10
45
 20
15
 30
0
  0
ENDSEC
  0
EOF
